<svg xmlns="http://www.w3.org/2000/svg" width="64" height="64" fill="none" viewBox="0 0 64 64">
  <rect width="64" height="64" rx="14" fill="#F5EEDB"/>
  <path fill="#6F8A57" d="M48.7 12.5c-9.2 1.1-16.1 6.4-18.4 14.2 8.6.3 16.4-4.9 19.2-12.9.3-.8 0-1.4-.8-1.3Z"/>
  <path fill="#C38B32" d="M22.7 28.9c3.9-5.9 12.8-6 16.9-.2l.5.8c2.5 3.9 1.8 9-1.6 12.1l-3.1 2.8a9.6 9.6 0 0 1-12.7.1l-3.2-2.8a9.4 9.4 0 0 1-1.8-12l.6-.8Z"/>
  <path fill="#263A2F" d="M25.4 27.2a9.5 9.5 0 0 1 3.9-1.6v20.9a9.7 9.7 0 0 1-3.9-1.5V27.2Zm9.3-1.5a9.5 9.5 0 0 1 3.8 1.7V45a9.7 9.7 0 0 1-3.8 1.5V25.7Z"/>
  <path fill="#F8FAF0" d="M18.3 23.6c-2.7-3.7-.4-9.1 4.2-9.5 4.5-.4 7.6 4.5 5.4 8.4l-2.2 3.9a4.3 4.3 0 0 1-7.4.2v-3Zm19.8-1.1c-2.2-3.9.9-8.8 5.4-8.4 4.6.4 6.9 5.8 4.2 9.5l-.1 3a4.3 4.3 0 0 1-7.4-.2l-2.1-3.9Z" opacity=".82"/>
  <path stroke="#263A2F" stroke-linecap="round" stroke-width="2.3" d="M25 18.8c-1.3-2.9-4-4.7-7.4-5.1M39 18.8c1.3-2.9 4-4.7 7.4-5.1M32 47.3v4.4"/>
</svg>
